<?xml version="1.0" encoding="utf-8"?>
<svg viewBox="0 0 500 500" xmlns="http://www.w3.org/2000/svg">
  <defs>
    <clipPath id="clippath0" transform="">
      <path d="M 0 623.622 L 870.236 623.622 L 870.236 0 L 0 0 Z" style="fill: none; clip-rule: nonzero;"/>
    </clipPath>
  </defs>
  <g transform="matrix(1, 0, 0, -1, -360.29284, 488.734073)">
    <g transform="matrix(2.135955, 0, 0, 2.135955, 492.91394, 219.47905)" style="">
      <path d="M 0 0 L 0 73.669 L 27.687 92.28 L 27.687 18.464 L 82.55 -1.653 L 82.55 -30.082 Z" style="fill: rgb(255, 99, 0); fill-opacity: 1;"/>
    </g>
    <g transform="matrix(2.135955, 0, 0, 2.135955, 641.152222, 476.501801)" style="">
      <path d="M 0 0 L -26.62 -17.897 L 13.153 -78.452 L 13.153 -150.41 L 40.497 -132.464 L 40.497 -61.357 Z" style="fill: rgb(82, 94, 103); fill-opacity: 1;"/>
    </g>
    <g transform="">
      <path d="M 0 623.622 L 870.236 623.622 L 870.236 0 L 0 0 Z" style="fill: none;"/>
    </g>
    <g style="clip-path: url(#clippath0);" transform="matrix(2.135955, 0, 0, 2.135955, -319.099854, -427.279633)">
      <g transform="translate(343.2338 253.7942)">
        <path d="M 0 0 C 0.802 0.828 1.579 1.592 2.329 2.291 C 3.533 1.476 4.562 0.88 5.417 0.505 C 6.271 0.129 6.756 -0.059 6.873 -0.059 L 10.154 3.417 C 8.368 4.129 6.841 4.971 5.572 5.941 C 3.89 4.375 2.905 3.592 2.621 3.592 C 2.439 3.592 1.825 3.896 0.776 4.504 C -0.272 5.112 -0.952 5.572 -1.263 5.883 L -4.563 2.466 L -2.389 1.067 Z" style="fill: rgb(255, 99, 0); fill-opacity: 1;"/>
      </g>
    </g>
    <g style="clip-path: url(#clippath0);" transform="matrix(2.135955, 0, 0, 2.135955, -319.099854, -427.279633)">
      <g transform="translate(375.891 234.4944)">
        <path d="M 0 0 C 1.1 0 1.773 0.263 2.019 0.787 C 2.265 1.311 2.611 2.304 3.058 3.767 C 3.504 5.229 3.744 6.35 3.776 7.126 C 3.808 7.902 3.711 8.754 3.484 9.679 C 3.258 10.604 2.899 11.526 2.407 12.446 C 1.915 13.365 1.1 14.465 -0.039 15.747 L -2.505 11.009 C -1.056 9.288 -0.117 7.56 0.311 5.825 L -12.563 5.825 L -13.902 5.825 C -15.196 5.747 -16.128 6.09 -16.698 6.854 C -17.138 7.476 -17.565 8.2 -17.979 9.028 C -18.394 9.856 -18.704 10.691 -18.911 11.533 C -19.287 12.322 -20.037 12.782 -21.163 12.912 C -22.483 12.782 -23.898 11.967 -25.406 10.466 C -26.914 8.964 -28.195 7.087 -29.25 4.835 C -30.306 2.583 -31.454 1.561 -32.696 1.768 C -34.288 1.689 -35.383 3.249 -35.978 6.446 C -36.34 8.621 -36.412 10.996 -36.191 13.572 C -36.852 13.055 -37.259 11.734 -37.414 9.611 L -37.667 6.854 C -37.563 -0.33 -35.926 -3.844 -32.755 -3.688 C -31.629 -3.688 -30.412 -2.672 -29.104 -0.641 L -25.629 5.534 C -24.114 7.579 -22.992 8.307 -22.261 7.718 C -21.529 7.129 -20.931 6.245 -20.465 5.068 C -19.895 3.566 -19.332 2.459 -18.775 1.748 C -17.577 0.69 -16.199 0.139 -14.659 0.041 L -14.659 0 L -14.193 0 L -12.523 0 Z" style="fill: rgb(255, 99, 0); fill-opacity: 1;"/>
      </g>
    </g>
    <g style="clip-path: url(#clippath0);" transform="matrix(2.135955, 0, 0, 2.135955, -319.099854, -427.279633)">
      <g transform="translate(369.0951 228.7864)">
        <path d="M 0 0 C -0.182 0 -0.796 0.305 -1.845 0.913 C -2.893 1.521 -3.572 1.98 -3.883 2.291 L -7.164 -1.126 L -4.99 -2.523 L -2.621 -3.592 C -1.818 -2.764 -1.042 -2 -0.291 -1.301 C 0.912 -2.116 1.941 -2.711 2.796 -3.087 C 3.65 -3.462 4.136 -3.65 4.252 -3.65 L 7.533 -0.175 C 5.747 0.537 4.22 1.379 2.951 2.35 C 1.269 0.783 0.284 0 0 0" style="fill: rgb(255, 99, 0); fill-opacity: 1;"/>
      </g>
    </g>
    <g style="clip-path: url(#clippath0);" transform="matrix(2.135955, 0, 0, 2.135955, -319.099854, -427.279633)">
      <g transform="translate(390.3461 246.5129)">
        <path d="M 0 0 C -1.224 1.347 -2.295 2.278 -3.214 2.796 L -4.631 -2.66 C -4.488 -2.932 -3.936 -3.466 -2.971 -4.262 C -2.007 -5.058 -0.91 -6.4 0.32 -8.29 C -0.211 -9.701 -0.984 -10.963 -2 -12.076 C -3.017 -13.189 -3.993 -14.034 -4.932 -14.61 C -5.871 -15.186 -6.712 -15.642 -7.456 -15.979 C -8.2 -16.315 -9.058 -16.552 -10.028 -16.687 C -10.999 -16.823 -11.873 -16.895 -12.649 -16.901 C -13.427 -16.907 -14.273 -16.801 -15.193 -16.581 C -14.986 -16.801 -14.326 -17.146 -13.213 -17.619 C -12.1 -18.092 -10.543 -18.603 -8.543 -19.153 C -6.544 -19.703 -5.046 -19.913 -4.049 -19.784 C -2.857 -19.292 -1.509 -18.062 0 -16.096 C 1.507 -14.128 2.469 -11.533 2.883 -8.31 C 3.077 -6.809 2.951 -5.385 2.504 -4.038 C 2.058 -2.692 1.223 -1.347 0 0" style="fill: rgb(255, 99, 0); fill-opacity: 1;"/>
      </g>
    </g>
    <g style="clip-path: url(#clippath0);" transform="matrix(2.135955, 0, 0, 2.135955, -319.099854, -427.279633)">
      <g transform="translate(410.8588 253.7942)">
        <path d="M 0 0 C 0.802 0.828 1.579 1.592 2.329 2.291 C 3.533 1.476 4.562 0.88 5.417 0.505 C 6.271 0.129 6.756 -0.059 6.873 -0.059 L 10.154 3.417 C 8.368 4.129 6.841 4.971 5.572 5.941 C 3.89 4.375 2.905 3.592 2.621 3.592 C 2.439 3.592 1.824 3.896 0.776 4.504 C -0.272 5.112 -0.952 5.572 -1.263 5.883 L -4.563 2.466 L -2.389 1.067 Z" style="fill: rgb(255, 99, 0); fill-opacity: 1;"/>
      </g>
    </g>
    <g style="clip-path: url(#clippath0);" transform="matrix(2.135955, 0, 0, 2.135955, -319.099854, -427.279633)">
      <g transform="translate(414.726 240.5657)">
        <path d="M 0 0 C -0.529 0.158 -0.979 0.489 -1.336 1.005 C -1.693 1.521 -1.879 1.879 -1.892 2.09 C -1.918 2.289 -1.707 2.554 -1.283 2.871 C -0.859 3.188 -0.291 3.479 0.41 3.758 C 1.099 4.035 1.654 3.969 2.077 3.546 C 2.487 3.109 2.792 2.726 2.978 2.382 C 3.162 2.037 3.255 1.746 3.255 1.495 C 2.567 0.675 1.482 0.172 0 0 M 37.801 3.109 L 37.682 5.437 L 37.471 10.068 L 39.852 14.396 C 37.841 15.771 36.689 16.565 36.398 16.776 C 36.121 17.002 35.856 17.227 35.631 17.438 C 35.406 17.663 35.182 18.007 34.97 18.457 C 34.745 18.92 34.626 19.317 34.6 19.647 C 34.572 19.979 34.454 20.138 34.269 20.138 L 32.905 17.518 C 32.337 16.247 32.032 15.427 31.992 15.03 C 31.953 14.646 32.032 14.315 32.218 14.038 C 32.402 13.76 32.575 13.521 32.747 13.323 C 32.905 13.125 33.117 12.82 33.369 12.397 C 33.567 11.709 33.687 11.074 33.739 10.492 L 35.036 -0.226 L 29.545 -0.226 L 29.545 -0.252 L 24.425 -0.252 C 25.02 0.608 25.483 1.481 25.84 2.382 C 26.476 3.877 26.304 5.094 25.338 6.033 C 24.358 6.973 23.035 7.541 21.342 7.753 C 19.648 7.965 18.259 7.938 17.174 7.7 C 16.076 7.462 15.163 7.131 14.422 6.708 C 13.271 3.625 12.715 2.011 12.741 1.865 C 12.769 1.733 12.967 1.707 13.311 1.812 C 13.668 1.918 14.145 1.918 14.753 1.825 C 15.361 1.72 15.931 1.508 16.473 1.178 C 17.002 0.833 17.438 0.357 17.756 -0.252 L 5.041 -0.252 L 5.861 2.593 C 6.047 5.318 5.901 7.158 5.425 8.097 C 4.948 9.036 4.459 9.5 3.97 9.5 C 3.467 9.5 2.818 9.301 2.038 8.918 C 1.244 8.534 0.503 8.044 -0.198 7.449 C -0.913 6.854 -1.627 6.139 -2.328 5.292 C -3.043 4.445 -3.665 3.625 -4.181 2.845 C -4.697 2.051 -5.015 1.442 -5.134 1.019 C -5.266 0.595 -5.306 0.172 -5.266 -0.252 L -10.915 -0.252 C -11.815 -0.212 -12.517 -0.04 -13.006 0.277 C -13.693 0.714 -14.196 1.495 -14.501 2.593 C -14.806 3.691 -15.348 9.46 -16.115 19.912 L -18.801 14.911 C -18.1 5.371 -17.491 -0.238 -16.948 -1.879 C -16.313 -4.446 -14.646 -5.835 -11.921 -6.073 L -4.512 -6.073 C -2.474 -6.073 -1.085 -5.901 -0.357 -5.57 C -0.172 -5.729 0.596 -5.901 1.958 -6.073 L 16.036 -6.073 C 16.777 -6.073 17.531 -5.888 18.299 -5.53 C 19.079 -5.187 19.741 -4.657 20.27 -3.956 C 20.772 -4.671 21.342 -5.2 21.99 -5.544 C 22.639 -5.901 23.366 -6.073 24.173 -6.073 L 34.731 -6.073 C 35.737 -6.179 36.438 -5.689 36.809 -4.618 L 37.443 -2.475 L 37.92 -0.357 L 37.854 1.972 Z" style="fill: rgb(255, 99, 0); fill-opacity: 1;"/>
      </g>
    </g>
    <g style="clip-path: url(#clippath0);" transform="matrix(2.135955, 0, 0, 2.135955, -319.099854, -427.279633)">
      <g transform="translate(460.7377 245.2512)">
        <path d="M 0 0 L -0.137 1.864 L -0.389 4.893 L -0.466 5.824 L -1.282 11.533 L -1.941 15.319 L -2.291 14.717 L -2.68 13.805 C -2.99 13.195 -3.256 12.594 -3.476 11.999 L -4 10.563 C -4.518 9.19 -4.771 8.342 -4.757 8.019 L -2.311 -10.834 C -1.961 -10.329 -1.654 -9.844 -1.389 -9.378 C -1.123 -8.912 -0.845 -8.333 -0.554 -7.641 C -0.263 -6.948 -0.039 -5.954 0.116 -4.66 C 0.194 -3.818 0.2 -2.699 0.136 -1.301 Z" style="fill: rgb(255, 99, 0); fill-opacity: 1;"/>
      </g>
    </g>
    <g style="clip-path: url(#clippath0);" transform="matrix(2.135955, 0, 0, 2.135955, -319.099854, -427.279633)">
      <g transform="translate(500.0355 228.7473)">
        <path d="M 0 0 C -0.181 0 -0.796 0.305 -1.844 0.913 C -2.893 1.521 -3.572 1.98 -3.883 2.292 L -7.184 -1.126 L -5.009 -2.523 L -2.621 -3.592 C -1.818 -2.763 -1.042 -1.999 -0.291 -1.301 C 0.913 -2.129 1.942 -2.728 2.796 -3.097 C 3.65 -3.465 4.136 -3.649 4.252 -3.649 L 7.533 -0.175 C 5.747 0.537 4.22 1.379 2.951 2.35 C 1.269 0.784 0.285 0 0 0" style="fill: rgb(255, 99, 0); fill-opacity: 1;"/>
      </g>
    </g>
    <g style="clip-path: url(#clippath0);" transform="matrix(2.135955, 0, 0, 2.135955, -319.099854, -427.279633)">
      <g transform="translate(525.1595 251.6194)">
        <path d="M 0 0 L 3.456 3.165 C 1.929 4.161 0.647 5.229 -0.388 6.368 L -4.019 3.185 C -2.983 1.54 -1.644 0.479 0 0" style="fill: rgb(255, 99, 0); fill-opacity: 1;"/>
      </g>
    </g>
    <g style="clip-path: url(#clippath0);" transform="matrix(2.135955, 0, 0, 2.135955, -319.099854, -427.279633)">
      <g transform="translate(515.2836 231.8196)">
        <path d="M 0 0 C -1.164 0.728 -2.051 1.628 -2.673 2.713 C -1.839 2.752 -0.887 2.594 0.212 2.223 C 1.297 1.866 2.249 0.873 3.083 -0.74 C 2.17 -0.966 1.151 -0.714 0 0 M 0.899 14.581 L 1.297 11.855 C 0.344 10.228 -0.952 9.275 -2.633 8.984 C -2.144 10.73 -0.966 12.596 0.899 14.581 M 16.433 12.358 C 16.208 13.284 15.838 14.197 15.348 15.123 C 14.858 16.036 14.038 17.135 12.9 18.418 L 10.439 13.681 C 11.895 11.961 12.821 10.241 13.258 8.494 L 2.21 8.494 L 2.687 10.611 C 3.109 13.734 3.202 15.943 2.978 17.227 C 2.766 18.511 2.514 19.186 2.223 19.251 C 1.945 19.317 1.006 18.418 -0.595 16.565 C -2.183 14.713 -3.625 12.027 -4.922 8.494 L -7.29 8.494 C -8.177 8.494 -8.997 8.666 -9.738 8.984 C -10.466 9.314 -10.876 9.725 -10.929 10.215 C -10.981 10.718 -10.995 11.273 -10.941 11.868 C -10.902 12.477 -11.008 12.848 -11.272 13.02 C -11.524 13.179 -11.868 13.033 -12.278 12.583 C -12.688 12.146 -13.085 11.511 -13.456 10.69 C -13.84 9.857 -14.236 9.328 -14.66 9.076 C -15.097 8.825 -16.049 8.627 -17.518 8.494 L -22.241 8.494 L -22.241 8.455 C -23.393 8.587 -24.292 8.878 -24.9 9.354 C -25.654 9.924 -26.21 10.955 -26.594 12.438 C -26.978 13.933 -27.679 19.396 -28.685 28.844 L -31.675 23.233 L -29.558 4.287 C -30.325 2.766 -32.006 1.733 -34.625 1.204 C -37.245 0.675 -39.481 0.847 -41.359 1.721 C -42.815 2.606 -43.596 4.247 -43.729 6.655 C -43.477 8.587 -42.921 10.413 -42.074 12.146 C -41.69 12.821 -41.598 13.218 -41.796 13.324 C -41.995 13.43 -42.379 13.179 -42.921 12.543 C -43.477 11.908 -44.218 10.506 -45.17 8.322 C -46.109 6.152 -46.546 4.221 -46.467 2.527 C -46.388 0.847 -46.07 -0.529 -45.515 -1.588 C -44.959 -2.646 -43.979 -3.546 -42.577 -4.3 C -41.175 -5.041 -39.401 -5.345 -37.284 -5.213 C -34.705 -5.08 -32.588 -4.379 -30.921 -3.096 C -29.796 -1.971 -28.989 -1.032 -28.525 -0.304 C -28.062 0.424 -27.626 2.223 -27.229 5.081 C -26.448 3.56 -24.979 2.752 -22.823 2.673 L -17.015 2.673 C -14.832 2.673 -13.43 3.652 -12.808 5.584 C -12.477 4.327 -11.961 3.546 -11.26 3.242 C -10.559 2.938 -9.765 2.778 -8.891 2.739 C -8.441 2.713 -7.979 2.713 -7.515 2.699 L -7.515 2.673 L -5.967 2.673 C -5.967 1.257 -5.755 0.133 -5.332 -0.687 C -4.896 -1.495 -4.326 -2.275 -3.612 -3.003 C -2.884 -3.73 -1.865 -4.273 -0.542 -4.631 C 0.781 -4.988 1.893 -4.988 2.792 -4.631 C 3.679 -4.273 4.485 -3.255 5.213 -1.561 C 5.558 -0.82 5.769 0.133 5.875 1.311 L 5.425 2.673 L 12.94 2.673 C 14.038 2.673 14.713 2.938 14.964 3.467 C 15.202 3.982 15.56 4.975 15.996 6.443 C 16.446 7.899 16.685 9.023 16.724 9.805 C 16.751 10.571 16.658 11.432 16.433 12.358" style="fill: rgb(255, 99, 0); fill-opacity: 1;"/>
      </g>
    </g>
    <g style="clip-path: url(#clippath0);" transform="matrix(2.135955, 0, 0, 2.135955, -319.099854, -427.279633)">
      <g transform="translate(340.6605 217.4934)">
        <path d="M 0 0 C 0.093 -0.013 0.177 -0.034 0.251 -0.07 C 0.323 -0.104 0.396 -0.156 0.466 -0.222 C 0.535 -0.288 0.613 -0.376 0.699 -0.483 L 9.532 -11.739 C 9.502 -11.468 9.48 -11.2 9.469 -10.94 C 9.458 -10.682 9.452 -10.439 9.452 -10.214 L 9.452 0.018 L 12.21 0.018 L 12.21 -16.813 L 10.593 -16.813 C 10.344 -16.813 10.139 -16.775 9.975 -16.697 C 9.813 -16.62 9.653 -16.479 9.498 -16.278 L 0.699 -5.068 C 0.722 -5.317 0.739 -5.563 0.751 -5.809 C 0.763 -6.053 0.769 -6.276 0.769 -6.478 L 0.769 -16.813 L -1.99 -16.813 L -1.99 0.018 L -0.349 0.018 C -0.209 0.018 -0.093 0.012 0 0" style="fill: rgb(82, 94, 103); fill-opacity: 1;"/>
      </g>
    </g>
    <g style="clip-path: url(#clippath0);" transform="matrix(2.135955, 0, 0, 2.135955, -319.099854, -427.279633)">
      <g transform="translate(360.1683 207.0354)">
        <path d="M 0 0 L 5.365 0 L 3.316 5.6 C 3.224 5.847 3.121 6.141 3.008 6.478 C 2.896 6.814 2.786 7.183 2.677 7.577 C 2.568 7.183 2.461 6.812 2.356 6.472 C 2.252 6.13 2.149 5.831 2.048 5.575 Z M 10.894 -6.355 L 8.474 -6.355 C 8.201 -6.355 7.979 -6.287 7.804 -6.151 C 7.629 -6.016 7.504 -5.847 7.426 -5.645 L 6.169 -2.211 L -0.804 -2.211 L -2.061 -5.645 C -2.123 -5.824 -2.244 -5.986 -2.427 -6.134 C -2.609 -6.281 -2.832 -6.355 -3.097 -6.355 L -5.529 -6.355 L 1.082 10.476 L 4.283 10.476 Z" style="fill: rgb(82, 94, 103); fill-opacity: 1;"/>
      </g>
    </g>
    <g style="clip-path: url(#clippath0);" transform="matrix(2.135955, 0, 0, 2.135955, -319.099854, -427.279633)">
      <g transform="translate(386.9965 200.6799)">
        <path d="M 0 0 L -3.154 0 L -3.154 7.355 L -11.046 7.355 L -11.046 0 L -14.2 0 L -14.2 16.831 L -11.046 16.831 L -11.046 9.592 L -3.154 9.592 L -3.154 16.831 L 0 16.831 Z" style="fill: rgb(82, 94, 103); fill-opacity: 1;"/>
      </g>
    </g>
    <g style="clip-path: url(#clippath0);" transform="matrix(2.135955, 0, 0, 2.135955, -319.099854, -427.279633)">
      <g transform="">
        <path d="M 393.922 200.68 L 390.78 200.68 L 390.78 217.511 L 393.922 217.511 Z" style="fill: rgb(82, 94, 103); fill-opacity: 1;"/>
      </g>
      <g transform="translate(400.8363 203.2649)">
        <path d="M 0 0 L 6.739 0 L 6.739 -2.585 L -3.131 -2.585 L -3.131 14.246 L 0 14.246 Z" style="fill: rgb(82, 94, 103); fill-opacity: 1;"/>
      </g>
      <g transform="translate(417.4691 209.05)">
        <path d="M 0 0 L 2.352 0 C 2.925 0 3.425 0.069 3.853 0.213 C 4.279 0.357 4.632 0.562 4.911 0.832 C 5.19 1.1 5.4 1.425 5.54 1.809 C 5.68 2.193 5.75 2.622 5.75 3.096 C 5.75 3.545 5.68 3.952 5.54 4.317 C 5.4 4.683 5.19 4.992 4.911 5.247 C 4.632 5.505 4.279 5.7 3.853 5.836 C 3.425 5.972 2.925 6.04 2.352 6.04 L 0 6.04 Z M 0 -2.445 L 0 -8.37 L -3.131 -8.37 L -3.131 8.461 L 2.352 8.461 C 3.476 8.461 4.45 8.329 5.272 8.065 C 6.095 7.801 6.773 7.433 7.31 6.96 C 7.845 6.485 8.24 5.92 8.496 5.26 C 8.753 4.601 8.881 3.878 8.881 3.096 C 8.881 2.279 8.745 1.532 8.474 0.854 C 8.202 0.176 7.795 -0.409 7.251 -0.896 C 6.708 -1.386 6.029 -1.767 5.214 -2.038 C 4.399 -2.31 3.445 -2.445 2.352 -2.445 Z" style="fill: rgb(82, 94, 103); fill-opacity: 1;"/>
      </g>
      <g transform="translate(432.0179 209.5032)">
        <path d="M 0 0 L 1.956 0 C 2.546 0 3.06 0.073 3.498 0.222 C 3.936 0.369 4.297 0.572 4.58 0.832 C 4.864 1.092 5.075 1.401 5.214 1.756 C 5.354 2.113 5.424 2.507 5.424 2.932 C 5.424 3.786 5.144 4.441 4.58 4.9 C 4.018 5.357 3.158 5.587 2.003 5.587 L 0 5.587 Z M 0 -2.246 L 0 -8.823 L -3.131 -8.823 L -3.131 8.008 L 2.003 8.008 C 3.15 8.008 4.135 7.891 4.953 7.652 C 5.771 7.415 6.442 7.084 6.967 6.656 C 7.49 6.231 7.874 5.721 8.118 5.128 C 8.363 4.533 8.485 3.88 8.485 3.165 C 8.485 2.599 8.402 2.063 8.235 1.559 C 8.068 1.056 7.828 0.597 7.514 0.186 C 7.199 -0.226 6.812 -0.587 6.35 -0.896 C 5.888 -1.208 5.362 -1.455 4.772 -1.642 C 5.168 -1.866 5.51 -2.188 5.797 -2.607 L 10.01 -8.823 L 7.193 -8.823 C 6.922 -8.823 6.691 -8.77 6.501 -8.659 C 6.312 -8.552 6.149 -8.396 6.018 -8.194 L 2.479 -2.805 C 2.348 -2.604 2.202 -2.46 2.044 -2.376 C 1.884 -2.29 1.649 -2.246 1.339 -2.246 Z" style="fill: rgb(82, 94, 103); fill-opacity: 1;"/>
      </g>
      <g transform="translate(456.4027 209.0959)">
        <path d="M 0 0 C 0 0.922 -0.122 1.75 -0.366 2.484 C -0.611 3.218 -0.962 3.84 -1.419 4.354 C -1.878 4.864 -2.435 5.258 -3.09 5.529 C -3.746 5.8 -4.485 5.936 -5.308 5.936 C -6.13 5.936 -6.871 5.8 -7.53 5.529 C -8.19 5.258 -8.751 4.864 -9.212 4.354 C -9.674 3.84 -10.029 3.218 -10.277 2.484 C -10.525 1.75 -10.65 0.922 -10.65 0 C -10.65 -0.925 -10.525 -1.753 -10.277 -2.485 C -10.029 -3.218 -9.674 -3.839 -9.212 -4.348 C -8.751 -4.856 -8.19 -5.246 -7.53 -5.518 C -6.871 -5.789 -6.13 -5.925 -5.308 -5.925 C -4.485 -5.925 -3.746 -5.789 -3.09 -5.518 C -2.435 -5.246 -1.878 -4.856 -1.419 -4.348 C -0.962 -3.839 -0.611 -3.218 -0.366 -2.485 C -0.122 -1.753 0 -0.925 0 0 M 3.213 0 C 3.213 -1.234 3.007 -2.378 2.596 -3.428 C 2.185 -4.479 1.606 -5.39 0.861 -6.158 C 0.116 -6.927 -0.779 -7.525 -1.827 -7.957 C -2.875 -8.386 -4.035 -8.602 -5.308 -8.602 C -6.58 -8.602 -7.742 -8.386 -8.793 -7.957 C -9.845 -7.525 -10.745 -6.927 -11.493 -6.158 C -12.242 -5.39 -12.823 -4.479 -13.234 -3.428 C -13.646 -2.378 -13.851 -1.234 -13.851 0 C -13.851 1.233 -13.646 2.375 -13.234 3.427 C -12.823 4.479 -12.242 5.389 -11.493 6.157 C -10.745 6.924 -9.845 7.524 -8.793 7.954 C -7.742 8.385 -6.58 8.601 -5.308 8.601 C -4.035 8.601 -2.875 8.383 -1.827 7.95 C -0.779 7.515 0.116 6.916 0.861 6.151 C 1.606 5.387 2.185 4.479 2.596 3.427 C 3.007 2.375 3.213 1.233 3.213 0" style="fill: rgb(82, 94, 103); fill-opacity: 1;"/>
      </g>
      <g transform="translate(465.3187 209.05)">
        <path d="M 0 0 L 2.352 0 C 2.926 0 3.426 0.069 3.853 0.213 C 4.28 0.357 4.632 0.562 4.912 0.832 C 5.191 1.1 5.4 1.425 5.54 1.809 C 5.68 2.193 5.75 2.622 5.75 3.096 C 5.75 3.545 5.68 3.952 5.54 4.317 C 5.4 4.683 5.191 4.992 4.912 5.247 C 4.632 5.505 4.28 5.7 3.853 5.836 C 3.426 5.972 2.926 6.04 2.352 6.04 L 0 6.04 Z M 0 -2.445 L 0 -8.37 L -3.131 -8.37 L -3.131 8.461 L 2.352 8.461 C 3.477 8.461 4.45 8.329 5.272 8.065 C 6.096 7.801 6.774 7.433 7.31 6.96 C 7.845 6.485 8.241 5.92 8.497 5.26 C 8.753 4.601 8.881 3.878 8.881 3.096 C 8.881 2.279 8.745 1.532 8.474 0.854 C 8.202 0.176 7.795 -0.409 7.251 -0.896 C 6.708 -1.386 6.029 -1.767 5.214 -2.038 C 4.399 -2.31 3.445 -2.445 2.352 -2.445 Z" style="fill: rgb(82, 94, 103); fill-opacity: 1;"/>
      </g>
      <g transform="translate(487.2474 217.511)">
        <path d="M 0 0 L 0 -2.491 L -7.462 -2.491 L -7.462 -7.158 L -1.583 -7.158 L -1.583 -9.567 L -7.462 -9.567 L -7.462 -14.328 L 0 -14.328 L 0 -16.831 L -10.615 -16.831 L -10.615 0 Z" style="fill: rgb(82, 94, 103); fill-opacity: 1;"/>
      </g>
      <g transform="translate(493.1957 209.5032)">
        <path d="M 0 0 L 1.955 0 C 2.545 0 3.059 0.073 3.497 0.222 C 3.935 0.369 4.296 0.572 4.58 0.832 C 4.863 1.092 5.074 1.401 5.213 1.756 C 5.354 2.113 5.423 2.507 5.423 2.932 C 5.423 3.786 5.143 4.441 4.58 4.9 C 4.017 5.357 3.157 5.587 2.002 5.587 L 0 5.587 Z M 0 -2.246 L 0 -8.823 L -3.131 -8.823 L -3.131 8.008 L 2.002 8.008 C 3.149 8.008 4.134 7.891 4.952 7.652 C 5.771 7.415 6.442 7.084 6.966 6.656 C 7.489 6.231 7.873 5.721 8.117 5.128 C 8.362 4.533 8.485 3.88 8.485 3.165 C 8.485 2.599 8.401 2.063 8.234 1.559 C 8.067 1.056 7.827 0.597 7.513 0.186 C 7.198 -0.226 6.811 -0.587 6.35 -0.896 C 5.887 -1.208 5.361 -1.455 4.771 -1.642 C 5.167 -1.866 5.509 -2.188 5.796 -2.607 L 10.009 -8.823 L 7.192 -8.823 C 6.921 -8.823 6.69 -8.77 6.5 -8.659 C 6.311 -8.552 6.148 -8.396 6.017 -8.194 L 2.479 -2.805 C 2.347 -2.604 2.201 -2.46 2.043 -2.376 C 1.883 -2.29 1.648 -2.246 1.338 -2.246 Z" style="fill: rgb(82, 94, 103); fill-opacity: 1;"/>
      </g>
      <g transform="translate(516.4154 217.511)">
        <path d="M 0 0 L 0 -2.573 L -5.063 -2.573 L -5.063 -16.831 L -8.194 -16.831 L -8.194 -2.573 L -13.28 -2.573 L -13.28 0 Z" style="fill: rgb(82, 94, 103); fill-opacity: 1;"/>
      </g>
      <g transform="translate(525.89 207.2209)">
        <path d="M 0 0 L 0 -6.541 L -3.132 -6.541 L -3.132 0 L -9.266 10.29 L -6.507 10.29 C -6.235 10.29 -6.021 10.225 -5.86 10.093 C -5.702 9.961 -5.568 9.793 -5.459 9.592 L -2.375 3.971 C -2.196 3.635 -2.041 3.32 -1.909 3.021 C -1.777 2.723 -1.657 2.43 -1.549 2.143 C -1.448 2.438 -1.333 2.733 -1.206 3.032 C -1.077 3.332 -0.924 3.644 -0.745 3.971 L 2.315 9.592 C 2.401 9.761 2.529 9.921 2.7 10.068 C 2.87 10.216 3.088 10.29 3.352 10.29 L 6.122 10.29 Z" style="fill: rgb(82, 94, 103); fill-opacity: 1;"/>
      </g>
    </g>
  </g>
</svg>